<svg xmlns="http://www.w3.org/2000/svg" viewBox="0 0 1400 532" font-family="-apple-system, BlinkMacSystemFont, 'Segoe UI', Helvetica, Arial, sans-serif" font-size="26" fill="#e6edf3"><rect width="1400" height="532" fill="#0b1016"/><defs><marker id="ah" viewBox="0 0 10 10" refX="9" refY="5" markerWidth="6" markerHeight="6" orient="auto-start-reverse"><path d="M0 0L10 5L0 10z" fill="#9aa7b4"/></marker><marker id="ahb" viewBox="0 0 10 10" refX="9" refY="5" markerWidth="6" markerHeight="6" orient="auto-start-reverse"><path d="M0 0L10 5L0 10z" fill="#4cc2ff"/></marker><marker id="aho" viewBox="0 0 10 10" refX="9" refY="5" markerWidth="6" markerHeight="6" orient="auto-start-reverse"><path d="M0 0L10 5L0 10z" fill="#f5a623"/></marker></defs><text x="700.0" y="44" font-size="28" text-anchor="middle" fill="#e6edf3" font-weight="bold" >Rescue attempts: bytes at equal quality (square = 1.00)</text><line x1="762.1" y1="70" x2="762.1" y2="442" stroke="#2a3541" stroke-width="2"/><text x="762.0833333333334" y="476" font-size="22" text-anchor="middle" fill="#9aa7b4" font-weight="normal" >0.5x</text><line x1="914.2" y1="70" x2="914.2" y2="442" stroke="#2a3541" stroke-width="2"/><text x="914.1666666666667" y="476" font-size="22" text-anchor="middle" fill="#9aa7b4" font-weight="normal" >1x</text><line x1="1066.2" y1="70" x2="1066.2" y2="442" stroke="#2a3541" stroke-width="2"/><text x="1066.25" y="476" font-size="22" text-anchor="middle" fill="#9aa7b4" font-weight="normal" >1.5x</text><line x1="1218.3" y1="70" x2="1218.3" y2="442" stroke="#2a3541" stroke-width="2"/><text x="1218.3333333333335" y="476" font-size="22" text-anchor="middle" fill="#9aa7b4" font-weight="normal" >2x</text><text x="588" y="110" font-size="24" text-anchor="end" fill="#e6edf3" font-weight="normal" >square (today)</text><rect x="610.0" y="80" width="304.2" height="42" rx="6" fill="#4cc2ff"/><text x="928.1666666666667" y="110" font-size="25" text-anchor="start" fill="#e6edf3" font-weight="bold" >1.00x</text><text x="588" y="172" font-size="24" text-anchor="end" fill="#e6edf3" font-weight="normal" >polar strip, cut at the chin</text><rect x="610.0" y="142" width="553.6" height="42" rx="6" fill="#f5a623"/><line x1="1130.1" y1="163" x2="1187.9" y2="163" stroke="#e6edf3" stroke-width="3"/><line x1="1130.1" y1="150" x2="1130.1" y2="176" stroke="#e6edf3" stroke-width="3"/><line x1="1187.9" y1="150" x2="1187.9" y2="176" stroke="#e6edf3" stroke-width="3"/><text x="1201.9166666666665" y="172" font-size="25" text-anchor="start" fill="#e6edf3" font-weight="bold" >1.82x</text><text x="588" y="234" font-size="24" text-anchor="end" fill="#e6edf3" font-weight="normal" >+ repeated rows across the cut</text><rect x="610.0" y="204" width="584.0" height="42" rx="6" fill="#ff6b6b"/><line x1="1166.6" y1="225" x2="1248.8" y2="225" stroke="#e6edf3" stroke-width="3"/><line x1="1166.6" y1="212" x2="1166.6" y2="238" stroke="#e6edf3" stroke-width="3"/><line x1="1248.8" y1="212" x2="1248.8" y2="238" stroke="#e6edf3" stroke-width="3"/><text x="1262.75" y="234" font-size="25" text-anchor="start" fill="#e6edf3" font-weight="bold" >1.92x</text><text x="588" y="296" font-size="24" text-anchor="end" fill="#e6edf3" font-weight="normal" >polar, rings of equal area (best polar)</text><rect x="610.0" y="266" width="535.3" height="42" rx="6" fill="#f5a623"/><line x1="1114.9" y1="287" x2="1197.0" y2="287" stroke="#e6edf3" stroke-width="3"/><line x1="1114.9" y1="274" x2="1114.9" y2="300" stroke="#e6edf3" stroke-width="3"/><line x1="1197.0" y1="274" x2="1197.0" y2="300" stroke="#e6edf3" stroke-width="3"/><text x="1211.0416666666667" y="296" font-size="25" text-anchor="start" fill="#e6edf3" font-weight="bold" >1.76x</text><text x="588" y="358" font-size="24" text-anchor="end" fill="#e6edf3" font-weight="normal" >gentle disc-to-square map</text><rect x="610.0" y="328" width="492.8" height="42" rx="6" fill="#f5a623"/><line x1="1084.5" y1="349" x2="1127.1" y2="349" stroke="#e6edf3" stroke-width="3"/><line x1="1084.5" y1="336" x2="1084.5" y2="362" stroke="#e6edf3" stroke-width="3"/><line x1="1127.1" y1="336" x2="1127.1" y2="362" stroke="#e6edf3" stroke-width="3"/><text x="1141.0833333333335" y="358" font-size="25" text-anchor="start" fill="#e6edf3" font-weight="bold" >1.62x</text><text x="588" y="420" font-size="24" text-anchor="end" fill="#e6edf3" font-weight="normal" >gentlest disc-to-square map</text><rect x="610.0" y="390" width="416.7" height="42" rx="6" fill="#f5a623"/><line x1="1008.5" y1="411" x2="1051.0" y2="411" stroke="#e6edf3" stroke-width="3"/><line x1="1008.5" y1="398" x2="1008.5" y2="424" stroke="#e6edf3" stroke-width="3"/><line x1="1051.0" y1="398" x2="1051.0" y2="424" stroke="#e6edf3" stroke-width="3"/><text x="1065.0416666666665" y="420" font-size="25" text-anchor="start" fill="#e6edf3" font-weight="bold" >1.37x</text></svg>