<svg xmlns="http://www.w3.org/2000/svg" viewBox="0 0 1000 660" font-family="-apple-system, BlinkMacSystemFont, 'Segoe UI', Helvetica, Arial, sans-serif" font-size="26" fill="#e6edf3"><rect width="1000" height="660" fill="#0b1016"/><defs><marker id="ah" viewBox="0 0 10 10" refX="9" refY="5" markerWidth="6" markerHeight="6" orient="auto-start-reverse"><path d="M0 0L10 5L0 10z" fill="#9aa7b4"/></marker><marker id="ahb" viewBox="0 0 10 10" refX="9" refY="5" markerWidth="6" markerHeight="6" orient="auto-start-reverse"><path d="M0 0L10 5L0 10z" fill="#4cc2ff"/></marker><marker id="aho" viewBox="0 0 10 10" refX="9" refY="5" markerWidth="6" markerHeight="6" orient="auto-start-reverse"><path d="M0 0L10 5L0 10z" fill="#f5a623"/></marker></defs><line x1="110" y1="480" x2="960" y2="480" stroke="#9aa7b4" stroke-width="3"/><line x1="110" y1="40" x2="110" y2="480" stroke="#9aa7b4" stroke-width="3"/><text x="535.0" y="592" font-size="30" text-anchor="middle" fill="#9aa7b4" font-weight="normal" >file size (bytes)</text><text x="40" y="260.0" font-size="30" text-anchor="middle" fill="#9aa7b4" font-weight="normal" transform="rotate(-90 40 260.0)">picture quality</text><polyline points="110.0,417.3 118.5,381.8 127.0,367.1 135.5,355.8 144.0,346.2 152.5,337.9 161.0,330.3 169.5,323.3 178.0,316.8 186.5,310.7 195.0,304.9 203.5,299.5 212.0,294.2 220.5,289.2 229.0,284.4 237.5,279.7 246.0,275.2 254.5,270.8 263.0,266.6 271.5,262.4 280.0,258.4 288.5,254.5 297.0,250.6 305.5,246.9 314.0,243.2 322.5,239.7 331.0,236.1 339.5,232.7 348.0,229.3 356.5,226.0 365.0,222.7 373.5,219.5 382.0,216.3 390.5,213.2 399.0,210.1 407.5,207.1 416.0,204.1 424.5,201.2 433.0,198.3 441.5,195.4 450.0,192.6 458.5,189.8 467.0,187.0 475.5,184.3 484.0,181.6 492.5,179.0 501.0,176.3 509.5,173.7 518.0,171.1 526.5,168.6 535.0,166.1 543.5,163.6 552.0,161.1 560.5,158.6 569.0,156.2 577.5,153.8 586.0,151.4 594.5,149.1 603.0,146.7 611.5,144.4 620.0,142.1 628.5,139.8 637.0,137.5 645.5,135.3 654.0,133.1 662.5,130.8 671.0,128.7 679.5,126.5 688.0,124.3 696.5,122.2 705.0,120.0 713.5,117.9 722.0,115.8 730.5,113.7 739.0,111.7 747.5,109.6 756.0,107.6 764.5,105.5 773.0,103.5 781.5,101.5 790.0,99.5 798.5,97.5 807.0,95.6 815.5,93.6 824.0,91.7 832.5,89.7 841.0,87.8 849.5,85.9 858.0,84.0 866.5,82.1 875.0,80.2 883.5,78.4 892.0,76.5 900.5,74.7 909.0,72.8 917.5,71.0 926.0,69.2 934.5,67.4 943.0,65.6 951.5,63.8 960.0,62.0" fill="none" stroke="#4cc2ff" stroke-width="6"/><polyline points="237.5,387.7 246.0,371.0 254.5,359.0 263.0,349.0 271.5,340.3 280.0,332.5 288.5,325.4 297.0,318.7 305.5,312.5 314.0,306.7 322.5,301.1 331.0,295.8 339.5,290.7 348.0,285.8 356.5,281.1 365.0,276.5 373.5,272.1 382.0,267.8 390.5,263.7 399.0,259.6 407.5,255.7 416.0,251.8 424.5,248.0 433.0,244.3 441.5,240.7 450.0,237.2 458.5,233.7 467.0,230.3 475.5,227.0 484.0,223.7 492.5,220.4 501.0,217.3 509.5,214.1 518.0,211.1 526.5,208.0 535.0,205.0 543.5,202.1 552.0,199.2 560.5,196.3 569.0,193.4 577.5,190.6 586.0,187.9 594.5,185.1 603.0,182.4 611.5,179.8 620.0,177.1 628.5,174.5 637.0,171.9 645.5,169.4 654.0,166.8 662.5,164.3 671.0,161.8 679.5,159.4 688.0,156.9 696.5,154.5 705.0,152.1 713.5,149.8 722.0,147.4 730.5,145.1 739.0,142.8 747.5,140.5 756.0,138.2 764.5,136.0 773.0,133.7 781.5,131.5 790.0,129.3 798.5,127.1 807.0,125.0 815.5,122.8 824.0,120.7 832.5,118.6 841.0,116.5 849.5,114.4 858.0,112.3 866.5,110.2 875.0,108.2 883.5,106.1 892.0,104.1 900.5,102.1 909.0,100.1 917.5,98.1 926.0,96.2 934.5,94.2 943.0,92.3 951.5,90.3 960.0,88.4" fill="none" stroke="#f5a623" stroke-width="6"/><line x1="110" y1="213.2" x2="552.1" y2="213.2" stroke="#e6edf3" stroke-width="3" stroke-dasharray="12 10"/><text x="122" y="197.19568916850386" font-size="28" text-anchor="start" fill="#e6edf3" font-weight="normal" >same picture quality</text><line x1="390.5" y1="213.2" x2="390.5" y2="480" stroke="#4cc2ff" stroke-width="3" stroke-dasharray="8 8"/><circle cx="390.5" cy="213.2" r="10" fill="#4cc2ff"/><text x="390.5" y="514" font-size="28" text-anchor="middle" fill="#4cc2ff" font-weight="normal" >square = 1.00</text><line x1="512.1" y1="213.2" x2="512.1" y2="480" stroke="#f5a623" stroke-width="3" stroke-dasharray="8 8"/><circle cx="512.1" cy="213.2" r="10" fill="#f5a623"/><text x="512.0833738830224" y="550" font-size="28" text-anchor="middle" fill="#f5a623" font-weight="normal" >polar = 1.82</text><line x1="404.5" y1="293.2" x2="498.1" y2="293.2" stroke="#f5a623" stroke-width="5" marker-end="url(#aho)" marker-start="url(#aho)"/><text x="542.0833738830224" y="303.19568916850386" font-size="30" text-anchor="start" fill="#f5a623" font-weight="bold" >1.82x the bytes</text><text x="950" y="58" font-size="30" text-anchor="end" fill="#4cc2ff" font-weight="bold" >square</text><text x="950" y="190" font-size="30" text-anchor="end" fill="#f5a623" font-weight="bold" >polar strip</text><text x="500.0" y="645" font-size="26" text-anchor="middle" fill="#9aa7b4" font-weight="normal" >Six quality settings per variant; read off the bytes at the same quality.</text></svg>